#!OML:ASF E:/inclinewalkrobotboard/Project1/Captureday1/Session1/subject1.ASF
:FULLY-SPECIFIED
:DEGREES
213
root 0 0 0 -1.748571514064639 -5.3725707053895615 -7.356699332364542
lowerback 10.104819210589623 2.4636120450223604 5.688187568525077
upperback 0.06067456455705961 4.022386097330793 1.4657390881635122
thorax -5.52351083326684 1.8530543158767543 -2.2315277599206613
lowerneck -14.825406016940644 -3.3414492468126733 -0.9728142611340009
upperneck 17.45694473245259 -4.586930599697874 1.3297640570966083
head 8.028330624850106 -2.1392403854945554 0.09239892918599263
rclavicle -1.4345705481057227E-16 -4.981977422305144E-17
rhumerus -19.01988338796279 -6.624413014408333 -66.7292993468773
rradius 62.637692628654364
rwrist -8.867146341376202
rhand -13.086785741370736 -10.828223855684715
rfingers 7.125019999999853
rthumb 13.038071299401322 -40.03214786444696
lclavicle -8.435782634876918E-16 -3.8283710617589653E-16
lhumerus -39.943244053169 0.2807355331054568 83.31408288736137
lradius 38.67165794247922
lwrist 2.5663803532989355
lhand -19.113932650425987 -0.12134737913914329
lfingers 7.125019999999872
lthumb 7.091457747612859 29.366338055193168
rfemur -4.374693959628391 3.8909779243537916 18.229812724028335
rtibia 22.12146300417722
rfoot -6.752120345049487 -3.47538286345611
rtoes 1.6234689951333094
lfemur -16.390814096631377 -1.6611989491195767 -12.65395176991627
ltibia 37.78015516153033
lfoot -8.606298886375143 0.854349464753712
ltoes -19.904164769481206
214
root 0 0 0 -1.7268349712473214 -5.359938031665498 -7.350826948258028
lowerback 10.097791707927668 2.4697246694509474 5.660720378573601
upperback 0.051004742858330454 4.02798888609621 1.449614015356791
thorax -5.529626049338219 1.8547221378984955 -2.2337517903116764
lowerneck -14.740020369644558 -3.336850768122873 -0.9489033270188373
upperneck 17.358582038744046 -4.588549841199192 1.351687511337142
head 7.9898182075473265 -2.1377934850358318 0.09852801834889025
rclavicle -1.4480849915882872E-16 -4.6369393504413956E-17
rhumerus -19.037785786938528 -6.629836494048745 -66.74293768793073
rradius 62.609294844675496
rwrist -8.852858047599558
rhand -13.089033849005457 -10.8117869647175
rfingers 7.125019999999853
rthumb 13.036596158812376 -40.01600640544821
lclavicle -8.600524952384793E-16 -3.948136897707903E-16
lhumerus -40.1899049079894 0.3036454243820695 83.33798439701398
lradius 38.98647549798916
lwrist 2.4553746192632078
lhand -18.85897257989415 -0.8977775622991331
lfingers 7.125019999999867
lthumb 7.332784123092247 28.5802868435942
rfemur -4.248003972325475 3.3022024169796373 16.692264921092267
rtibia 22.85608017372453
rfoot -4.922610449797288 -2.9197647609443225
rtoes 2.2915929022775594
lfemur -15.439215662231234 -1.8930013339908782 -12.853808086045579
ltibia 36.284715570786105
lfoot -9.59608628647322 1.4939745165085574
ltoes -21.147500297468838
215
root 0 0 0 -1.7058126346404114 -5.319878584059223 -7.299743290445437
lowerback 10.09256488847487 2.4598971793395563 5.5852619475582035
upperback 0.04113339216248191 4.006557229519286 1.4312531450416595
thorax -5.536817905028648 1.8441076065469124 -2.208278807535468
lowerneck -14.65062733339336 -3.3289652815948765 -0.927911454708039
upperneck 17.249921960453566 -4.584946725392031 1.3744240963305325
head 7.950009227014056 -2.133931688660155 0.10634571520968278
rclavicle -1.5609121364870387E-16 -5.109463489147526E-17
rhumerus -19.195047840907844 -6.788097869334595 -66.9054303371938
rradius 62.11280877504111
rwrist -8.66923450401799
rhand -13.15261587376055 -10.358776818312982
rfingers 7.125019999999855
rthumb 12.9751085942457 -39.57037719077057
lclavicle -8.765355651141497E-16 -4.05055297235246E-16
lhumerus -40.42417823605491 0.3214095287032399 83.36027875837951
lradius 39.29468102597552
lwrist 2.3508925555339646
lhand -18.613837100268643 -1.6452111383981851
lfingers 7.125019999999862
lthumb 7.564514344562806 27.823822700393034
rfemur -5.129898340576201 2.5389133790514196 15.194191455162715
rtibia 25.474237827220538
rfoot -2.4297769949351586 -2.4723858852418106
rtoes 3.419070284378085
lfemur -14.186797299067251 -2.1253335142402747 -13.273571502095793
ltibia 34.70084641200979
lfoot -10.564210969295015 2.0096434944772
ltoes -22.038862934370368
216
root 0 0 0 -1.6970766331423977 -5.296430960744058 -7.266783660136342
lowerback 10.090768687895103 2.452944998127723 5.541086346837354
upperback 0.03660499930086136 3.9926502633562344 1.421777450440241
thorax -5.540627984644795 1.8374207483216867 -2.1918238679176962
lowerneck -14.60887136132948 -3.325285671027131 -0.919321538698539
upperneck 17.197593664233985 -4.583240447235863 1.385598937143226
head 7.931143801936889 -2.1321623339885147 0.11045602008778027
rclavicle -1.6226384302318648E-16 -5.686393524133371E-17
rhumerus -19.322203063318582 -6.9208547648387855 -67.0424646530619
rradius 61.698142266270935
rwrist -8.517402490199618
rhand -13.206443199927728 -9.977974442234913
rfingers 7.125019999999858
rthumb 12.922667874058392 -39.197686462071616
lclavicle -8.785172072350449E-16 -4.108427473608805E-16
lhumerus -40.47940322850468 0.3259034151594541 83.36610249349872
lradius 39.36645290768708
lwrist 2.3258844584441367
lhand -18.55652648237732 -1.822277211270693
lfingers 7.125019999999861
lthumb 7.619552075130767 27.646798665447985
rfemur -5.858953010066475 2.314623856068404 14.916953578244176
rtibia 26.825603162954152
rfoot -1.6776493863735098 -2.4711078047035464
rtoes 3.81752498674325
lfemur -13.451911090142161 -2.244414109146183 -13.557637475970814
ltibia 33.85927489039117
lfoot -11.05460621339833 2.2352788234291197
ltoes -22.378091297309716
217
root 0 0 0 -1.6867328007754896 -5.275421605948229 -7.239971602885224
lowerback 10.088279802013625 2.4480493279006765 5.502519756063152
upperback 0.03146168723643572 3.9819587431566625 1.4123170752715626
thorax -5.545144932171491 1.83226593632864 -2.1791026483723845
lowerneck -14.565176322207904 -3.3218969561070777 -0.9092925036008124
upperneck 17.140549011958708 -4.582234968278063 1.3978857943260043
head 7.911033822539936 -2.1306329738246275 0.11462913209547992
rclavicle -1.668022347132005E-16 -6.169042248970689E-17
rhumerus -19.407538195384614 -7.011716793482545 -67.13740332315324
rradius 61.41008405821004
rwrist -8.414016165361211
rhand -13.24420564571949 -9.713062249163748
rfingers 7.125019999999859
rthumb 12.88609904798289 -38.937308023036735
lclavicle -8.739460693640114E-16 -4.1146963920901373E-16
lhumerus -40.482599408554584 0.32188583589015 83.36693085788993
lradius 39.38000873893264
lwrist 2.3250627989358454
lhand -18.550330410952462 -1.8435626219232937
lfingers 7.125019999999861
lthumb 7.6260168710630385 27.6260307512314
rfemur -6.2617227200649985 2.346072407538149 15.033938185371554
rtibia 26.978073569872763
rfoot -1.8233699910030678 -2.624515612238219
rtoes 3.736808259062476
lfemur -12.657743962942458 -2.3798913075932155 -13.845012118985672
ltibia 32.9177835604581
lfoot -11.6211316876266 2.5124669237263486
ltoes -22.83663788806036
